<?xml version="1.0" encoding="UTF-8"?>
<svg width="21px" height="21px" viewBox="0 0 21 21" version="1.1" xmlns="http://www.w3.org/2000/svg" xmlns:xlink="http://www.w3.org/1999/xlink">
    <!-- Generator: Sketch 49.2 (51160) - http://www.bohemiancoding.com/sketch -->
    <title>dvr-health</title>
    <desc>Created with Sketch.</desc>
    <defs>
        <circle id="path-1" cx="9.5" cy="9.5" r="7.6"></circle>
    </defs>
    <g id="09---Desktop-VI-Library-and-Player" stroke="none" stroke-width="1" fill="none" fill-rule="evenodd">
        <g id="Library---Desktop-Menu" transform="translate(-20.000000, -272.000000)">
            <g id="Left-Drawer" transform="translate(-12.000000, 0.000000)">
                <g id="BT-Logout-Copy-2" transform="translate(12.000000, 257.000000)">
                    <g id="dvr-health" transform="translate(21.000000, 16.000000)">
                        <path d="M9.5,0 C4.275,0 0,4.275 0,9.5 C0,14.725 4.275,19 9.5,19 C14.725,19 19,14.725 19,9.5 C19,4.275 14.725,0 9.5,0 L9.5,0 Z M9.5,17.1 C5.32,17.1 1.9,13.68 1.9,9.5 C1.9,5.32 5.32,1.9 9.5,1.9 C13.68,1.9 17.1,5.32 17.1,9.5 C17.1,13.68 13.68,17.1 9.5,17.1 L9.5,17.1 Z" id="Shape" stroke="#FFFFFF" fill="#757575"></path>
                        <g id="Oval-2">
                            <use fill="#757575" fill-rule="evenodd" xlink:href="#path-1"></use>
                            <circle stroke="#FFFFFF" stroke-width="0.5" cx="9.5" cy="9.5" r="7.35"></circle>
                        </g>
                        <polygon id="Path" stroke="#FFFFFF" fill="#FFFFFF" points="10.45 4.75 8.55 4.75 8.55 8.55 4.75 8.55 4.75 10.45 8.55 10.45 8.55 14.25 10.45 14.25 10.45 10.45 14.25 10.45 14.25 8.55 10.45 8.55"></polygon>
                    </g>
                </g>
            </g>
        </g>
    </g>
</svg>